<svg width="11" height="10" viewBox="0 0 11 10" fill="none" xmlns="http://www.w3.org/2000/svg">
<path d="M0.5 3.00036V3.00027C0.499944 2.66736 0.565591 2.33789 0.69298 2.03117C0.820365 1.72446 1.00686 1.4468 1.24132 1.21429C1.47577 0.981791 1.75347 0.799095 2.05806 0.676624C2.36264 0.554158 2.68816 0.4943 3.01565 0.500427L3.01565 0.500572L3.02768 0.500507C3.423 0.498387 3.81439 0.581145 4.17598 0.743463C4.53757 0.905788 4.86128 1.14406 5.12544 1.44279L5.5 1.86635L5.87456 1.44279C6.13872 1.14406 6.46243 0.905788 6.82402 0.743463C7.18561 0.581145 7.577 0.498387 7.97232 0.500507L7.97232 0.500652L7.98435 0.500427C8.31184 0.4943 8.63736 0.554158 8.94194 0.676624C9.24653 0.799095 9.52423 0.981791 9.75868 1.21429C9.99314 1.4468 10.1796 1.72446 10.307 2.03117C10.4344 2.33789 10.5001 2.66736 10.5 3.00027V3.00036C10.5 4.2867 9.73973 5.47032 8.6387 6.6004C8.09437 7.15911 7.48531 7.68617 6.87961 8.19053C6.70826 8.33321 6.53599 8.47502 6.36547 8.61539C6.06735 8.86079 5.7746 9.10178 5.50154 9.33527C5.21385 9.08726 4.90438 8.83169 4.58957 8.5717C4.43452 8.44366 4.27818 8.31454 4.1225 8.18473C3.51657 7.67948 2.90729 7.153 2.36254 6.59519C1.2608 5.46704 0.5 4.28731 0.5 3.00036Z" fill="#FE8885" stroke="#FE8885"/>
</svg>
